# xmcd CD database file
#
# Track frame offsets:
#	150
#	11543
#	33638
#	46246
#	58146
#	69901
#	88411
#	102273
#	133758
#	149416
#	164371
#
# Disc length: 2372 seconds
#
# Revision: 2
# Processed by: cddbd v1.5.2PL0 Copyright (c) Steve Scherf et al.
# Submitted via: CDex 1.51
#
DISCID=9c09420b
DTITLE=Nina Simone - The Best Of Nina Simone
DYEAR=2007
DGENRE=Blues
TTITLE0=I Loves You Porgy
TTITLE1=Mississippi Goddam
TTITLE2=Don't LetMe Be Misunderstood
TTITLE3=See-Line Woman
TTITLE4=I Put A Spell On You
TTITLE5=Love Me Or Leave Me
TTITLE6=The Other Woman
TTITLE7=Wild Is The Wind
TTITLE8=Black Is The Colour Of My True Love's Hair
TTITLE9=Sugar In My Bowl
TTITLE10=My Baby Just Cares For Me
EXTD=The Millennium Coolection  20th Century \nCollection YEAR: 2007
EXTT0=
EXTT1=
EXTT2=
EXTT3=
EXTT4=
EXTT5=
EXTT6=
EXTT7=
EXTT8=
EXTT9=
EXTT10=
PLAYORDER=
